<svg xmlns="http://www.w3.org/2000/svg" width="44" height="48" viewBox="0 0 44 48"><path d="M43.4 23.027h-2.98l-.31-7.452a.634.634 0 0 0-.65-.619h-.71l-.31-.961h4.94a.612.612 0 0 1 .62.6v7.84a.6.6 0 0 1-.6.592zM5.25 14.956h-.71a.634.634 0 0 0-.65.619l-.31 7.452H.6a.6.6 0 0 1-.6-.592V14.6a.612.612 0 0 1 .62-.6h4.94zM4 44l7 1-.01 2.192a.816.816 0 0 1-.82.808H3.83a.81.81 0 0 1-.82-.808L3 45a.97.97 0 0 1 1-1zm37 1l-.01 2.192a.81.81 0 0 1-.82.808h-6.34a.816.816 0 0 1-.82-.808L33 45l7-1a.97.97 0 0 1 1 1zM6.17 14.939c.32-1.069.89-1.973 1.99-1.973h27.68c1.1 0 1.67.9 1.99 1.973L39 22v5a2.012 2.012 0 0 1 2 2v8H3v-8a2.012 2.012 0 0 1 2-2v-5zM37 15a1.192 1.192 0 0 0-1-1H8a1.192 1.192 0 0 0-1 1l-1 7a1.192 1.192 0 0 0 1 1h30a1.192 1.192 0 0 0 1-1zm-4.01 18.612a.39.39 0 0 0 .37.4h5.28a.382.382 0 0 0 .36-.4v-1.2a.381.381 0 0 0-.36-.4h-5.28a.389.389 0 0 0-.37.4v1.2zM14 35h16v-8a2.013 2.013 0 0 0-2-2H16a2.013 2.013 0 0 0-2 2v8zm-9-2.59v1.2a.382.382 0 0 0 .36.4h5.28a.39.39 0 0 0 .37-.4v-1.2a.389.389 0 0 0-.37-.4H5.36a.381.381 0 0 0-.36.4zM24 38h18v4l-12 2H14L2 42v-4h22zM11 15h3l-1 7h-3zm5 0h1l-1 7h-1z" fill="#fff"/><path d="M33 7l.73-1.563A.933.933 0 0 0 32 4.779L31 7v5H13V7l-1-2.221a.933.933 0 0 0-1.73.658L11 7v5H7l-2 1V2a2.012 2.012 0 0 1 2-2h30a2.012 2.012 0 0 1 2 2v11l-2-1h-4V7z" fill="#0499c5"/></svg>