<svg xmlns="http://www.w3.org/2000/svg" style="display:none;">
<symbol id="icon-delay-pay" viewBox="0 0 54 44"><path style="fill:#0499c5;fill-rule:evenodd" d="M 0.11129528,8.9356462 V 15.859472 H 3.1112951 v -3.923828 c 8.7028859,0.0022 17.4142029,-0.002 26.1132819,-0.002 -0.107093,-1.002583 0.02831,-2.0789119 0.130858,-2.9843728 H 17.478483 v -0.01367 z m 0,9.2304668 v 4.59375 H 35.554655 c -1.792537,-1.176504 -3.291805,-2.747929 -4.382812,-4.59375 z m 0,6.902344 V 43.935644 H 45.111296 V 25.068457 c -1.043735,0.0169 -1.984076,0 -3,0 V 40.935644 H 3.1112951 V 25.068457 Z m 9.49999962,6.867187 c -1.3807118,0 -2.4999998,1.119288 -2.4999998,2.5 0.00125,2.403525 3.0623469,3.420793 4.5019539,1.496094 1.113461,1.490659 3.406893,1.286073 4.238967,-0.378075 0.832074,-1.664148 -0.380316,-3.621646 -2.24092,-3.618019 -0.786893,0.0015 -1.527141,0.373469 -1.998047,1.003906 -0.47173,-0.631537 -1.213685,-1.0036 -2.0019541,-1.003906 z"/><path d="M661,836a11,11,0,1,1-11,11A11,11,0,0,1,661,836Zm0,3a1,1,0,0,1,1,1v7a1,1,0,0,1-2,0v-7A1,1,0,0,1,661,839Zm-0.711,7.289a1.009,1.009,0,0,1,1.427,0l3,3a1.009,1.009,0,0,1-1.427,1.427l-3-3A1.009,1.009,0,0,1,660.289,846.289Z" transform="translate(-618 -836)" fill="#fff" fill-rule="evenodd"/></symbol><symbol id="icon-delivery" viewBox="0 0 43 49"><path d="M0 13v36h43V13H0zM11.4.016h8.611v10L4 10zM3 16h37v30H3V16zM11.4.016h8.611v10L4 10zm20.2-.032h-8.61v10.027L39 10z" fill="#0499c5"/><path d="M29 33.056l-5.548 5.876.016.017L21.5 41l-1.969-2.052.016-.017L14 33.056 15.968 31 20 35.27V22h3v13.274l4.032-4.27z" fill="#fff"/></symbol><symbol id="icon-search" viewBox="0 0 14 14"><path class="cls-1" d="M8.307 8.307a.77.77 0 0 1 1.089 0l4.354 4.354a.77.77 0 1 1-1.088 1.089L8.307 9.396a.77.77 0 0 1 0-1.089zM1.776 1.775a6.158 6.158 0 1 1 0 8.709 6.159 6.159 0 0 1 0-8.709zm1.093 1.094a4.619 4.619 0 1 1 0 6.532 4.62 4.62 0 0 1 0-6.532z" fill="#fff"/></symbol><symbol id="icon-truck" viewBox="0 0 44 48"><path d="M43.4 23.027h-2.98l-.31-7.452a.634.634 0 0 0-.65-.619h-.71l-.31-.961h4.94a.612.612 0 0 1 .62.6v7.84a.6.6 0 0 1-.6.592zM5.25 14.956h-.71a.634.634 0 0 0-.65.619l-.31 7.452H.6a.6.6 0 0 1-.6-.592V14.6a.612.612 0 0 1 .62-.6h4.94zM4 44l7 1-.01 2.192a.816.816 0 0 1-.82.808H3.83a.81.81 0 0 1-.82-.808L3 45a.97.97 0 0 1 1-1zm37 1l-.01 2.192a.81.81 0 0 1-.82.808h-6.34a.816.816 0 0 1-.82-.808L33 45l7-1a.97.97 0 0 1 1 1zM6.17 14.939c.32-1.069.89-1.973 1.99-1.973h27.68c1.1 0 1.67.9 1.99 1.973L39 22v5a2.012 2.012 0 0 1 2 2v8H3v-8a2.012 2.012 0 0 1 2-2v-5zM37 15a1.192 1.192 0 0 0-1-1H8a1.192 1.192 0 0 0-1 1l-1 7a1.192 1.192 0 0 0 1 1h30a1.192 1.192 0 0 0 1-1zm-4.01 18.612a.39.39 0 0 0 .37.4h5.28a.382.382 0 0 0 .36-.4v-1.2a.381.381 0 0 0-.36-.4h-5.28a.389.389 0 0 0-.37.4v1.2zM14 35h16v-8a2.013 2.013 0 0 0-2-2H16a2.013 2.013 0 0 0-2 2v8zm-9-2.59v1.2a.382.382 0 0 0 .36.4h5.28a.39.39 0 0 0 .37-.4v-1.2a.389.389 0 0 0-.37-.4H5.36a.381.381 0 0 0-.36.4zM24 38h18v4l-12 2H14L2 42v-4h22zM11 15h3l-1 7h-3zm5 0h1l-1 7h-1z" fill="#fff"/><path d="M33 7l.73-1.563A.933.933 0 0 0 32 4.779L31 7v5H13V7l-1-2.221a.933.933 0 0 0-1.73.658L11 7v5H7l-2 1V2a2.012 2.012 0 0 1 2-2h30a2.012 2.012 0 0 1 2 2v11l-2-1h-4V7z" fill="#0499c5"/></symbol><symbol id="icon-user" viewBox="0 0 14 17"><path class="cls-1" d="M12.43 17c-.41-3.262-2.48-4.5-5.43-4.5S1.98 13.74 1.57 17H-.01C.51 12.93 3.4 11 7 11s6.49 1.932 7 6h-1.57zM7 9.989a4.995 4.995 0 1 1 5.01-4.995A5 5 0 0 1 7 9.989zm0-8.324a3.33 3.33 0 1 0 3.34 3.33A3.331 3.331 0 0 0 7 1.665z" fill="#0499c5"/></symbol></svg>