<?xml version="1.0" encoding="UTF-8" standalone="no"?>
<svg
   xmlns:dc="http://purl.org/dc/elements/1.1/"
   xmlns:cc="http://creativecommons.org/ns#"
   xmlns:rdf="http://www.w3.org/1999/02/22-rdf-syntax-ns#"
   xmlns:svg="http://www.w3.org/2000/svg"
   xmlns="http://www.w3.org/2000/svg"
   xmlns:sodipodi="http://sodipodi.sourceforge.net/DTD/sodipodi-0.dtd"
   xmlns:inkscape="http://www.inkscape.org/namespaces/inkscape"
   width="54"
   height="44"
   viewBox="0 0 54 44"
   version="1.1"
   id="svg8"
   sodipodi:docname="delay-pay.svg"
   inkscape:version="0.92.1 r15371">
  <metadata
     id="metadata12">
    <rdf:RDF>
      <cc:Work
         rdf:about="">
        <dc:format>image/svg+xml</dc:format>
        <dc:type
           rdf:resource="http://purl.org/dc/dcmitype/StillImage" />
      </cc:Work>
    </rdf:RDF>
  </metadata>
  <sodipodi:namedview
     pagecolor="#ffffff"
     bordercolor="#666666"
     borderopacity="1"
     objecttolerance="10"
     gridtolerance="10"
     guidetolerance="10"
     inkscape:pageopacity="0"
     inkscape:pageshadow="2"
     inkscape:window-width="2560"
     inkscape:window-height="1361"
     id="namedview10"
     showgrid="false"
     inkscape:snap-page="false"
     showguides="false"
     inkscape:zoom="10.727273"
     inkscape:cx="5.5352863"
     inkscape:cy="13.046547"
     inkscape:window-x="-9"
     inkscape:window-y="-9"
     inkscape:window-maximized="1"
     inkscape:current-layer="svg8" />
  <defs
     id="defs4">
    <style
       id="style2">
      .cls-1 {
        fill: #0499c5;
      }

      .cls-1, .cls-2 {
        fill-rule: evenodd;
      }

      .cls-2 {
        fill: #fff;
      }
    </style>
  </defs>
  <path
     style="fill:#0499c5;fill-rule:evenodd"
     d="M 0.11129528,8.9356462 V 15.859472 H 3.1112951 v -3.923828 c 8.7028859,0.0022 17.4142029,-0.002 26.1132819,-0.002 -0.107093,-1.002583 0.02831,-2.0789119 0.130858,-2.9843728 H 17.478483 v -0.01367 z m 0,9.2304668 v 4.59375 H 35.554655 c -1.792537,-1.176504 -3.291805,-2.747929 -4.382812,-4.59375 z m 0,6.902344 V 43.935644 H 45.111296 V 25.068457 c -1.043735,0.0169 -1.984076,0 -3,0 V 40.935644 H 3.1112951 V 25.068457 Z m 9.49999962,6.867187 c -1.3807118,0 -2.4999998,1.119288 -2.4999998,2.5 0.00125,2.403525 3.0623469,3.420793 4.5019539,1.496094 1.113461,1.490659 3.406893,1.286073 4.238967,-0.378075 0.832074,-1.664148 -0.380316,-3.621646 -2.24092,-3.618019 -0.786893,0.0015 -1.527141,0.373469 -1.998047,1.003906 -0.47173,-0.631537 -1.213685,-1.0036 -2.0019541,-1.003906 z"
     id="_2"
     inkscape:connector-curvature="0"
     sodipodi:nodetypes="ccccccccccccccccccccccccccsccc" />
  <path
     id="_2-2"
     data-name="2"
     class="cls-2"
     d="M661,836a11,11,0,1,1-11,11A11,11,0,0,1,661,836Zm0,3a1,1,0,0,1,1,1v7a1,1,0,0,1-2,0v-7A1,1,0,0,1,661,839Zm-0.711,7.289a1.009,1.009,0,0,1,1.427,0l3,3a1.009,1.009,0,0,1-1.427,1.427l-3-3A1.009,1.009,0,0,1,660.289,846.289Z"
     fill-rule="evenodd"
     transform="translate(-618 -836)" />
</svg>
