<svg xmlns="http://www.w3.org/2000/svg" width="14" height="14" viewBox="0 0 14 14">   
  <path
     style="fill:#fff;"
     d="M 6.2207031 -0.02734375 A 6.158 6.158 0 0 0 1.7753906 1.7753906 A 6.159 6.159 0 0 0 1.7753906 10.484375 A 6.158 6.158 0 0 0 9.9003906 10.990234 L 12.662109 13.75 A 0.77 0.77 0 1 0 13.75 12.660156 L 10.992188 9.9023438 A 6.158 6.158 0 0 0 6.2207031 -0.02734375 z M 6.109375 1.1269531 A 4.9830508 4.9830508 0 0 1 11.09375 6.109375 A 4.9830508 4.9830508 0 0 1 6.109375 11.09375 A 4.9830508 4.9830508 0 0 1 1.1269531 6.109375 A 4.9830508 4.9830508 0 0 1 6.109375 1.1269531 z "
     id="path2" />
</svg>
