<svg xmlns="http://www.w3.org/2000/svg" width="54" height="44" viewBox="0 0 54 44" id="svg8"><defs id="defs4"><style id="style2">.cls-1,.cls-2{fill:#0499c5;fill-rule:evenodd}.cls-2{fill:#fff}</style></defs><path d="M.111 8.936v6.923h3v-3.923c8.703.002 17.414-.002 26.114-.002-.108-1.003.028-2.08.13-2.985H17.478v-.013zm0 9.23v4.594h35.444a14.04 14.04 0 0 1-4.383-4.594zm0 6.902v18.868h45V25.068c-1.043.017-1.984 0-3 0v15.868h-39V25.068zm9.5 6.868a2.5 2.5 0 0 0-2.5 2.5c.002 2.403 3.063 3.42 4.502 1.496 1.114 1.49 3.407 1.286 4.24-.378.831-1.664-.381-3.622-2.242-3.618a2.5 2.5 0 0 0-1.998 1.004 2.5 2.5 0 0 0-2.002-1.004z" id="_2" fill="#0499c5" fill-rule="evenodd"/><path id="_2-2" data-name="2" class="cls-2" d="M661 836a11 11 0 1 1-11 11 11 11 0 0 1 11-11zm0 3a1 1 0 0 1 1 1v7a1 1 0 0 1-2 0v-7a1 1 0 0 1 1-1zm-.711 7.289a1.009 1.009 0 0 1 1.427 0l3 3a1.009 1.009 0 0 1-1.427 1.427l-3-3a1.009 1.009 0 0 1 0-1.427z" fill-rule="evenodd" transform="translate(-618 -836)"/></svg>